<svg width="14" height="21" viewBox="0 0 14 21" fill="none" xmlns="http://www.w3.org/2000/svg">
<path d="M11.7063 10.8004C11.1501 10.3751 10.3155 10.0354 9.2024 9.7815L8.34844 9.58612V6.04988L8.46408 6.09563C9.18887 6.4515 9.57834 7.125 9.63171 7.875H12.5386C12.4856 6.375 11.914 5.26575 10.8237 4.482C10.0993 3.96112 9.27318 3.62625 8.34844 3.4575V1.5H5.64112V3.3975C4.38918 3.5475 3.39636 3.93825 2.66732 4.5735C1.7128 5.40525 1.23592 6.44925 1.23592 7.70625C1.23592 9.08362 1.72363 10.0961 2.69904 10.7437C3.24514 11.1109 4.22945 11.4517 5.64112 11.7675V15.5985C5.12634 15.4609 4.72295 15.2344 4.43868 14.907C4.16447 14.589 3.98076 14.25 3.88716 13.5H1C1 15 1.54572 16.0763 2.63754 16.911C3.42576 17.5133 4.42901 17.8793 5.64112 18.0379V19.5H8.34844V18.0626C9.63751 17.913 10.6783 17.514 11.4665 16.8611C12.4887 16.0136 13 14.9486 13 13.6665C13 12.4159 12.5688 11.4608 11.7063 10.8004ZM4.73919 8.619C4.26928 8.3715 4.03452 7.99575 4.03452 7.494C4.03452 6.948 4.27276 6.52012 4.74925 6.21562C5.00064 6.05475 5.3 5.93775 5.64112 5.8605V8.9445C5.22148 8.826 4.91865 8.71725 4.73919 8.619ZM8.7905 15.5216C8.64568 15.5685 8.49806 15.6068 8.34844 15.6364V12.375C8.81448 12.5089 9.18229 12.6547 9.44993 12.8115C9.87227 13.0654 10.0838 13.4265 10.0838 13.8896C10.0834 14.6831 9.65221 15.2295 8.7905 15.5216Z" stroke="#428194" stroke-width="1.5"/>
</svg>
