<svg width="40" height="34" viewBox="0 0 40 34" fill="none" xmlns="http://www.w3.org/2000/svg">
<path d="M38 9.05882V28.4706C38 30.4118 36.38 32 34.4 32H5.6C3.62 32 2 30.4118 2 28.4706V9.05882C2 7.11765 3.62 5.52941 5.6 5.52941V3.76471H12.8V5.52941H16.4L18.2 2H29L30.8 5.52941H34.4C36.38 5.52941 38 7.11765 38 9.05882ZM32.6 17.8824C32.6 12.9412 28.64 9.05882 23.6 9.05882C18.56 9.05882 14.6 12.9412 14.6 17.8824C14.6 22.8235 18.56 26.7059 23.6 26.7059C28.64 26.7059 32.6 22.8235 32.6 17.8824Z" stroke="#E4F6FD" stroke-width="3" stroke-linejoin="round"/>
</svg>
