<svg width="18" height="18" viewBox="0 0 18 18" fill="none" xmlns="http://www.w3.org/2000/svg">
<path d="M14.672 10.6638V9.52931C14.672 9.22844 14.5525 8.93988 14.3398 8.72713C14.127 8.51438 13.8385 8.39486 13.5376 8.39486H2.19305C1.89217 8.39486 1.60362 8.51438 1.39087 8.72713C1.17812 8.93988 1.05859 9.22844 1.05859 9.52931V16.336C1.05859 16.6369 1.17812 16.9255 1.39087 17.1382C1.60362 17.351 1.89217 17.4705 2.19305 17.4705H13.5376C13.8385 17.4705 14.127 17.351 14.3398 17.1382C14.5525 16.9255 14.672 16.6369 14.672 16.336V15.2016M14.672 10.6638H10.1342C9.53247 10.6638 8.95537 10.9028 8.52986 11.3283C8.10436 11.7538 7.86532 12.3309 7.86532 12.9327C7.86532 13.5344 8.10436 14.1115 8.52986 14.537C8.95537 14.9625 9.53247 15.2016 10.1342 15.2016H14.672M14.672 10.6638C15.2738 10.6638 15.8509 10.9028 16.2764 11.3283C16.7019 11.7538 16.9409 12.3309 16.9409 12.9327C16.9409 13.5344 16.7019 14.1115 16.2764 14.537C15.8509 14.9625 15.2738 15.2016 14.672 15.2016M4.46196 8.39486V4.9915C4.46196 4.08887 4.82052 3.22321 5.45878 2.58496C6.09703 1.9467 6.96269 1.58813 7.86532 1.58813C8.76794 1.58813 9.6336 1.9467 10.2719 2.58496C10.9101 3.22321 11.2687 4.08887 11.2687 4.9915V8.39486M14.1048 12.9327H15.2393M11.8359 12.9327H12.9704M9.567 12.9327H10.7015" stroke="#428194" stroke-width="1.5"/>
</svg>
