<svg width="24" height="24" viewBox="0 0 24 24" fill="none" xmlns="http://www.w3.org/2000/svg">
<path d="M7.7335 11.4329C7.7335 11.1942 7.82832 10.9653 7.9971 10.7965C8.16589 10.6277 8.3948 10.5329 8.6335 10.5329H14.0335C14.2722 10.5329 14.5011 10.6277 14.6699 10.7965C14.8387 10.9653 14.9335 11.1942 14.9335 11.4329C14.9335 11.6716 14.8387 11.9005 14.6699 12.0693C14.5011 12.2381 14.2722 12.3329 14.0335 12.3329H8.6335C8.3948 12.3329 8.16589 12.2381 7.9971 12.0693C7.82832 11.9005 7.7335 11.6716 7.7335 11.4329ZM8.6335 14.1329C8.3948 14.1329 8.16589 14.2277 7.9971 14.3965C7.82832 14.5653 7.7335 14.7942 7.7335 15.0329C7.7335 15.2716 7.82832 15.5005 7.9971 15.6693C8.16589 15.8381 8.3948 15.9329 8.6335 15.9329H12.2335C12.4722 15.9329 12.7011 15.8381 12.8699 15.6693C13.0387 15.5005 13.1335 15.2716 13.1335 15.0329C13.1335 14.7942 13.0387 14.5653 12.8699 14.3965C12.7011 14.2277 12.4722 14.1329 12.2335 14.1329H8.6335ZM2.33351 12.3329C2.33396 10.3597 2.98284 8.44141 4.18029 6.87314C5.37774 5.30487 7.05739 4.17358 8.96074 3.65337C10.8641 3.13317 12.8857 3.25288 14.7143 3.99409C16.543 4.7353 18.0773 6.05693 19.0813 7.75556C20.0853 9.4542 20.5033 11.4357 20.2708 13.3951C20.0384 15.3546 19.1685 17.1833 17.7949 18.5999C16.4214 20.0165 14.6204 20.9425 12.6691 21.2353C10.7178 21.5281 8.72433 21.1716 6.9955 20.2205L3.4963 21.2861C3.34023 21.3336 3.17416 21.3379 3.01587 21.2983C2.85758 21.2588 2.71302 21.1769 2.59765 21.0615C2.48228 20.9462 2.40044 20.8016 2.36089 20.6433C2.32134 20.485 2.32556 20.319 2.37311 20.1629L3.4387 16.6583C2.71142 15.3328 2.33123 13.8448 2.33351 12.3329ZM11.3335 5.1329C10.0554 5.1328 8.80028 5.47291 7.6971 6.11832C6.59392 6.76373 5.68242 7.69117 5.05623 8.80537C4.43004 9.91958 4.11173 11.1804 4.13399 12.4583C4.15625 13.7362 4.51829 14.9852 5.1829 16.0769C5.24888 16.1853 5.29116 16.3065 5.30698 16.4325C5.32281 16.5584 5.3118 16.6863 5.2747 16.8077L4.5853 19.0739L6.8479 18.3845C6.96969 18.3474 7.09796 18.3366 7.22424 18.3527C7.35053 18.3688 7.47195 18.4116 7.5805 18.4781C8.52942 19.0574 9.59962 19.4092 10.7072 19.5057C11.8148 19.6022 12.9297 19.441 13.9646 19.0345C14.9994 18.628 15.9261 17.9874 16.6719 17.1629C17.4177 16.3384 17.9625 15.3524 18.2635 14.2821C18.5645 13.2118 18.6135 12.0864 18.4068 10.994C18.2 9.90156 17.7431 8.87187 17.0718 7.98561C16.4005 7.09935 15.5331 6.38058 14.5375 5.88565C13.542 5.39073 12.4453 5.13308 11.3335 5.1329Z" fill="#0E3158"/>
</svg>
