<svg width="20" height="20" viewBox="0 0 20 20" fill="none" xmlns="http://www.w3.org/2000/svg">
<path fill-rule="evenodd" clip-rule="evenodd" d="M6.00244 8.23919C6.00244 7.20291 6.41427 6.20908 7.14733 5.47633C7.88039 4.74357 8.87464 4.33191 9.91135 4.33191C10.9481 4.33191 11.9423 4.74357 12.6754 5.47633C13.4084 6.20908 13.8202 7.20291 13.8202 8.23919C13.8202 9.27547 13.4084 10.2693 12.6754 11.0021C11.9423 11.7348 10.9481 12.1465 9.91135 12.1465C8.87464 12.1465 7.88039 11.7348 7.14733 11.0021C6.41427 10.2693 6.00244 9.27547 6.00244 8.23919ZM9.91135 5.56579C9.20202 5.56579 8.52175 5.84745 8.02018 6.34881C7.51861 6.85017 7.23683 7.53016 7.23683 8.23919C7.23683 8.94822 7.51861 9.62821 8.02018 10.1296C8.52175 10.6309 9.20202 10.9126 9.91135 10.9126C10.6207 10.9126 11.3009 10.6309 11.8025 10.1296C12.3041 9.62821 12.5859 8.94822 12.5859 8.23919C12.5859 7.53016 12.3041 6.85017 11.8025 6.34881C11.3009 5.84745 10.6207 5.56579 9.91135 5.56579Z" fill="#0E3158"/>
<path fill-rule="evenodd" clip-rule="evenodd" d="M2.93626 7.29903C3.07692 5.59365 3.85401 4.0035 5.11324 2.8443C6.37247 1.6851 8.02176 1.04162 9.73364 1.04163H10.0891C11.801 1.04162 13.4503 1.6851 14.7095 2.8443C15.9688 4.0035 16.7459 5.59365 16.8865 7.29903C17.043 9.19862 16.456 11.0848 15.2489 12.5603L11.3046 17.3815C11.1358 17.5878 10.9232 17.7541 10.6823 17.8682C10.4414 17.9824 10.178 18.0416 9.91139 18.0416C9.64474 18.0416 9.38142 17.9824 9.14048 17.8682C8.89953 17.7541 8.68697 17.5878 8.51817 17.3815L4.57388 12.5603C3.36675 11.0848 2.77964 9.19863 2.93626 7.29903ZM9.73364 2.2755C8.33177 2.27572 6.98122 2.8028 5.95008 3.75214C4.91894 4.70148 4.2826 6.00366 4.16736 7.40021C4.03701 8.98111 4.52557 10.5509 5.53013 11.7788L9.47441 16.6008C9.52744 16.6657 9.59422 16.718 9.66994 16.7539C9.74566 16.7898 9.82841 16.8084 9.91221 16.8084C9.99601 16.8084 10.0788 16.7898 10.1545 16.7539C10.2302 16.718 10.297 16.6657 10.35 16.6008L14.2943 11.7788C15.2983 10.5506 15.7862 8.98089 15.6554 7.40021C15.5402 6.00352 14.9037 4.70123 13.8724 3.75187C12.8411 2.80251 11.4903 2.27551 10.0883 2.2755H9.73281H9.73364Z" fill="#0E3158"/>
</svg>
