<svg width="38" height="34" viewBox="0 0 38 34" fill="none" xmlns="http://www.w3.org/2000/svg">
<path d="M15.6667 22.5L20.6667 24.1666C20.6667 24.1666 33.1667 21.6666 34.8334 21.6666C36.5 21.6666 36.5 23.3333 34.8334 25C33.1667 26.6666 27.3334 31.6666 22.3334 31.6666C17.3334 31.6666 14 29.1666 10.6667 29.1666H2.33337" stroke="#E4F6FD" stroke-width="3" stroke-linecap="round" stroke-linejoin="round"/>
<path d="M2.33337 19.1666C4.00004 17.5 7.33337 15 10.6667 15C14 15 21.9167 18.3333 23.1667 20C24.4167 21.6666 20.6667 24.1666 20.6667 24.1666M12.3334 9.99996V3.33329C12.3334 2.89127 12.509 2.46734 12.8215 2.15478C13.1341 1.84222 13.558 1.66663 14 1.66663H34C34.4421 1.66663 34.866 1.84222 35.1786 2.15478C35.4911 2.46734 35.6667 2.89127 35.6667 3.33329V16.6666" stroke="#E4F6FD" stroke-width="3" stroke-linecap="round" stroke-linejoin="round"/>
<path d="M19.8334 1.66663H28.1667V9.16663H19.8334V1.66663Z" stroke="#E4F6FD" stroke-width="3" stroke-linecap="round" stroke-linejoin="round"/>
</svg>
