<svg width="24" height="25" viewBox="0 0 24 25" fill="none" xmlns="http://www.w3.org/2000/svg">
<path d="M16.3416 11.0166L16.3415 11.0165L14.9819 12.1962L15.3809 13.9318C15.3809 13.9319 15.3809 13.9319 15.3809 13.932C15.4323 14.1554 15.4351 14.4102 15.3363 14.6637C15.2373 14.9176 15.0623 15.1036 14.8717 15.2332C14.6856 15.3598 14.4556 15.4536 14.1914 15.4593C13.9297 15.465 13.6973 15.3831 13.5058 15.2631L12 14.3517L10.4949 15.2627C10.3035 15.3831 10.0709 15.4655 9.80864 15.4598C9.54336 15.454 9.3129 15.3594 9.12673 15.2321C8.93699 15.1024 8.76253 14.9166 8.66373 14.6632C8.56499 14.4099 8.56758 14.1553 8.61914 13.9316L8.61907 13.932L9.34994 14.1L8.61921 13.9314L16.3416 11.0166ZM16.3416 11.0166L16.3517 11.0075C16.5188 10.8571 16.6643 10.6576 16.7348 10.405C16.8058 10.151 16.7843 9.90279 16.7142 9.68409C16.6415 9.45722 16.5066 9.23709 16.2879 9.07282C16.0735 8.91173 15.8314 8.84413 15.6075 8.82721C15.6069 8.82716 15.6062 8.82711 15.6056 8.82706L13.8365 8.68792L13.1408 7.05799C13.0537 6.85053 12.911 6.6476 12.691 6.50096C12.4698 6.35349 12.2261 6.3 12 6.3C11.7739 6.3 11.5302 6.35349 11.309 6.50096C11.089 6.6476 10.9463 6.85053 10.8592 7.05799L10.1635 8.68792L8.39341 8.82713C8.16927 8.84361 7.92686 8.91099 7.71207 9.07232C7.49279 9.23703 7.35807 9.45783 7.28558 9.68475C7.21579 9.90318 7.19415 10.1513 7.26515 10.4055C7.33582 10.6585 7.48166 10.8582 7.64951 11.0086L7.64945 11.0087L7.65848 11.0165L9.0181 12.1962L16.3416 11.0166ZM6 18.25H5.68934L5.46967 18.4697L2.75 21.1893V5C2.75 4.65072 2.86568 4.37055 3.11788 4.11878C3.3707 3.86639 3.65158 3.75051 4.00051 3.75H20C20.3493 3.75 20.6301 3.86573 20.8827 4.11833C21.1352 4.37091 21.2504 4.65103 21.25 4.99909V5V17C21.25 17.3497 21.1343 17.6306 20.8822 17.8831C20.6309 18.1349 20.3508 18.2504 20.0009 18.25H20H6Z" stroke="#428194" stroke-width="1.5"/>
</svg>
