<svg width="35" height="44" viewBox="0 0 35 44" fill="none" xmlns="http://www.w3.org/2000/svg">
<g id="iOS / icon / 36 / notification bell">
<path id="&#244;&#128;&#157;&#150;" d="M28.8281 14.4453C31.043 14.4453 32.8945 12.6055 32.8945 10.3789C32.8945 8.15234 31.043 6.3125 28.8281 6.3125C26.5898 6.3125 24.7617 8.15234 24.7617 10.3789C24.7617 12.6055 26.5898 14.4453 28.8281 14.4453ZM13.7695 26.375H25.5703C25.4766 27.957 24.4688 28.9648 23.0508 28.9648C21.6445 28.9648 20.625 27.957 20.543 26.375H18.7148C18.8086 28.625 20.5781 30.6055 23.0508 30.6055C25.5352 30.6055 27.3047 28.625 27.3984 26.375H32.3438C33.4453 26.375 34.1133 25.8008 34.1133 24.957C34.1133 23.7852 32.918 22.7305 31.9102 21.6875C31.1367 20.8789 30.9258 19.2148 30.832 17.8672C30.8203 17.082 30.7617 16.3672 30.6914 15.6758C30.1406 15.8633 29.4141 15.9688 28.8398 15.9336C28.9102 16.5547 28.957 17.2344 28.9688 18.0078C29.0742 20.3047 29.4727 21.8047 30.3047 22.7422C30.9258 23.4336 31.6172 24.1133 31.8281 24.4648V24.6055H14.2734V24.4648C14.4844 24.1133 15.1875 23.4336 15.7969 22.7422C16.6406 21.8047 17.0391 20.3047 17.1445 18.0078C17.2383 12.8984 18.7617 11.2578 20.7656 10.7188C21.0586 10.6484 21.2227 10.4961 21.2344 10.2031C21.2695 8.97266 21.9727 8.11719 23.0508 8.11719C23.2617 8.11719 23.4609 8.15234 23.625 8.21094C23.8477 7.67188 24.1406 7.16797 24.5156 6.72266C24.082 6.52344 23.5898 6.39453 23.0508 6.39453C21.3281 6.39453 20.0625 7.61328 19.6758 9.13672C16.5586 10.2617 15.3633 13.25 15.2812 17.8672C15.1875 19.2148 14.9766 20.8789 14.2031 21.6875C13.1836 22.7305 12 23.7852 12 24.957C12 25.8008 12.6562 26.375 13.7695 26.375Z" fill="#0E3158"/>
</g>
</svg>
