<svg width="21" height="18" viewBox="0 0 21 18" fill="none" xmlns="http://www.w3.org/2000/svg">
<path d="M2.00985 18V5.1L0.0500488 0.85L1.85909 0L4.2209 5.05H15.8792L18.241 0L20.05 0.85L18.0902 5.1V18H2.00985ZM8.04 11H12.0601C12.3449 11 12.5837 10.904 12.7767 10.712C12.9696 10.52 13.0658 10.2827 13.0651 10C13.0651 9.71667 12.9686 9.47933 12.7757 9.288C12.5827 9.09667 12.3442 9.00067 12.0601 9H8.04C7.75524 9 7.51671 9.096 7.32442 9.288C7.13212 9.48 7.03564 9.71733 7.03497 10C7.03497 10.2833 7.13145 10.521 7.32442 10.713C7.51738 10.905 7.75591 11.0007 8.04 11ZM4.0199 16H16.0802V7.05H4.0199V16Z" fill="#0E3158"/>
</svg>
