<svg width="350" height="262" viewBox="0 0 350 262" fill="none" xmlns="http://www.w3.org/2000/svg">
<path d="M351.621 230.242H0V230.417H351.621V230.242Z" fill="#EBEBEB"/>
<path d="M316.389 241.557H293.097V241.733H316.389V241.557Z" fill="#EBEBEB"/>
<path d="M232.928 243.47H226.817V243.645H232.928V243.47Z" fill="#EBEBEB"/>
<path d="M292.394 235.031H278.899V235.206H292.394V235.031Z" fill="#EBEBEB"/>
<path d="M67.2654 236.212H36.8923V236.388H67.2654V236.212Z" fill="#EBEBEB"/>
<path d="M77.9825 236.212H73.531V236.388H77.9825V236.212Z" fill="#EBEBEB"/>
<path d="M158.335 239.18H92.4553V239.356H158.335V239.18Z" fill="#EBEBEB"/>
<path d="M166.668 198.877H30.8793C29.8156 198.875 28.796 198.451 28.0445 197.698C27.2929 196.945 26.8708 195.925 26.8708 194.861V3.98035C26.8801 2.92269 27.3063 1.9114 28.0568 1.16613C28.8074 0.420861 29.8216 0.00181182 30.8793 0H166.668C167.733 0 168.755 0.423062 169.508 1.17612C170.261 1.92917 170.684 2.95053 170.684 4.01551V194.861C170.684 195.926 170.261 196.948 169.508 197.701C168.755 198.454 167.733 198.877 166.668 198.877ZM30.8793 0.140649C29.8622 0.142512 28.8874 0.547872 28.1688 1.26775C27.4502 1.98764 27.0467 2.96322 27.0467 3.98035V194.861C27.0467 195.879 27.4502 196.854 28.1688 197.574C28.8874 198.294 29.8622 198.699 30.8793 198.701H166.668C167.686 198.699 168.662 198.294 169.381 197.574C170.101 196.855 170.506 195.879 170.508 194.861V3.98035C170.506 2.96257 170.101 1.98701 169.381 1.26732C168.662 0.547643 167.686 0.142508 166.668 0.140649H30.8793Z" fill="#EBEBEB"/>
<path d="M318.787 198.877H182.991C181.926 198.875 180.906 198.451 180.154 197.699C179.401 196.946 178.977 195.926 178.975 194.861V3.98035C178.986 2.92205 179.414 1.91076 180.166 1.16569C180.917 0.420615 181.932 0.00179207 182.991 0H318.787C319.843 0.00366002 320.856 0.423527 321.605 1.1686C322.354 1.91367 322.779 2.92391 322.788 3.98035V194.861C322.788 195.924 322.367 196.943 321.617 197.696C320.867 198.449 319.85 198.873 318.787 198.877ZM182.991 0.140649C181.973 0.142508 180.998 0.547643 180.278 1.26732C179.558 1.98701 179.153 2.96257 179.151 3.98035V194.861C179.153 195.879 179.558 196.855 180.278 197.574C180.998 198.294 181.973 198.699 182.991 198.701H318.787C319.805 198.699 320.78 198.294 321.5 197.574C322.22 196.855 322.625 195.879 322.627 194.861V3.98035C322.625 2.96257 322.22 1.98701 321.5 1.26732C320.78 0.547643 319.805 0.142508 318.787 0.140649H182.991Z" fill="#EBEBEB"/>
<path d="M123.489 76.8996H69.2905V187.288H123.489V76.8996Z" fill="#EBEBEB"/>
<path d="M121.45 184.995V79.1921H71.3369V184.995H121.45Z" fill="#E0E0E0"/>
<path d="M96.9702 78.6014H95.8169V186.141H96.9702V78.6014Z" fill="#EBEBEB"/>
<path d="M124.741 75.3102H68.0388V81.0557H124.741V75.3102Z" fill="#EBEBEB"/>
<path d="M124.741 81.6956H68.0388V82.3778H124.741V81.6956Z" fill="#EBEBEB"/>
<path d="M124.741 83.2358H68.0388V83.9179H124.741V83.2358Z" fill="#EBEBEB"/>
<path d="M124.741 84.7829H68.0388V85.465H124.741V84.7829Z" fill="#EBEBEB"/>
<path d="M124.741 86.33H68.0388V87.0122H124.741V86.33Z" fill="#EBEBEB"/>
<path d="M124.741 87.8772H68.0388V88.5593H124.741V87.8772Z" fill="#EBEBEB"/>
<path d="M124.741 89.4243H68.0388V90.1064H124.741V89.4243Z" fill="#EBEBEB"/>
<path d="M124.741 90.9644H68.0388V91.6466H124.741V90.9644Z" fill="#EBEBEB"/>
<path d="M124.741 92.5116H68.0388V93.1937H124.741V92.5116Z" fill="#EBEBEB"/>
<path d="M124.741 94.0587H68.0388V94.7408H124.741V94.0587Z" fill="#EBEBEB"/>
<path d="M124.741 95.6058H68.0388V96.288H124.741V95.6058Z" fill="#EBEBEB"/>
<path d="M124.741 97.153H68.0388V97.8351H124.741V97.153Z" fill="#EBEBEB"/>
<path d="M124.741 98.7001H68.0388V99.3822H124.741V98.7001Z" fill="#EBEBEB"/>
<path d="M124.741 100.24H68.0388V100.922H124.741V100.24Z" fill="#EBEBEB"/>
<path d="M124.741 101.787H68.0388V102.469H124.741V101.787Z" fill="#EBEBEB"/>
<path d="M124.741 103.334H68.0388V104.017H124.741V103.334Z" fill="#EBEBEB"/>
<path d="M124.741 104.882H68.0388V105.564H124.741V104.882Z" fill="#EBEBEB"/>
<path d="M124.741 106.429H68.0388V107.111H124.741V106.429Z" fill="#EBEBEB"/>
<path d="M124.741 107.969H68.0388V108.651H124.741V107.969Z" fill="#EBEBEB"/>
<path d="M187.661 76.8996H133.462V187.288H187.661V76.8996Z" fill="#EBEBEB"/>
<path d="M185.621 184.995V79.1921H135.508V184.995H185.621Z" fill="#E0E0E0"/>
<path d="M161.141 78.6014H159.988V186.141H161.141V78.6014Z" fill="#EBEBEB"/>
<path d="M188.912 75.3102H132.21V81.0557H188.912V75.3102Z" fill="#EBEBEB"/>
<path d="M188.912 81.6956H132.21V82.3778H188.912V81.6956Z" fill="#EBEBEB"/>
<path d="M188.912 83.2358H132.21V83.9179H188.912V83.2358Z" fill="#EBEBEB"/>
<path d="M188.912 84.7829H132.21V85.465H188.912V84.7829Z" fill="#EBEBEB"/>
<path d="M188.912 86.33H132.21V87.0122H188.912V86.33Z" fill="#EBEBEB"/>
<path d="M188.912 87.8772H132.21V88.5593H188.912V87.8772Z" fill="#EBEBEB"/>
<path d="M188.912 89.4243H132.21V90.1064H188.912V89.4243Z" fill="#EBEBEB"/>
<path d="M188.912 90.9644H132.21V91.6466H188.912V90.9644Z" fill="#EBEBEB"/>
<path d="M188.912 92.5116H132.21V93.1937H188.912V92.5116Z" fill="#EBEBEB"/>
<path d="M188.912 94.0587H132.21V94.7408H188.912V94.0587Z" fill="#EBEBEB"/>
<path d="M188.912 95.6058H132.21V96.288H188.912V95.6058Z" fill="#EBEBEB"/>
<path d="M188.912 97.153H132.21V97.8351H188.912V97.153Z" fill="#EBEBEB"/>
<path d="M188.912 98.7001H132.21V99.3822H188.912V98.7001Z" fill="#EBEBEB"/>
<path d="M188.912 100.24H132.21V100.922H188.912V100.24Z" fill="#EBEBEB"/>
<path d="M188.912 101.787H132.21V102.469H188.912V101.787Z" fill="#EBEBEB"/>
<path d="M188.912 103.334H132.21V104.017H188.912V103.334Z" fill="#EBEBEB"/>
<path d="M188.912 104.882H132.21V105.564H188.912V104.882Z" fill="#EBEBEB"/>
<path d="M188.912 106.429H132.21V107.111H188.912V106.429Z" fill="#EBEBEB"/>
<path d="M188.912 107.969H132.21V108.651H188.912V107.969Z" fill="#EBEBEB"/>
<path d="M141.654 204.946H190.417C191.2 204.946 191.952 205.257 192.506 205.811C193.06 206.365 193.371 207.116 193.371 207.9V213.455H138.701V207.9C138.701 207.512 138.777 207.128 138.926 206.769C139.074 206.411 139.292 206.085 139.566 205.811C139.84 205.537 140.166 205.319 140.524 205.171C140.882 205.022 141.266 204.946 141.654 204.946Z" fill="#E0E0E0"/>
<path opacity="0.6" d="M141.654 204.946H155.719C156.502 204.946 157.254 205.257 157.808 205.811C158.362 206.365 158.673 207.116 158.673 207.9V213.455H138.701V207.9C138.701 207.512 138.777 207.128 138.926 206.769C139.074 206.411 139.292 206.085 139.566 205.811C139.84 205.537 140.166 205.319 140.524 205.171C140.882 205.022 141.266 204.946 141.654 204.946Z" fill="#F0F0F0"/>
<path d="M176.219 252.991H174.58L173.483 212.991H176.219V252.991Z" fill="#E0E0E0"/>
<path d="M140.241 252.991H138.595V212.991H141.331L140.241 252.991Z" fill="#E0E0E0"/>
<path d="M156.872 252.991H155.234V212.991H157.969L156.872 252.991Z" fill="#E0E0E0"/>
<path d="M192.857 252.991H191.212L190.122 212.991H192.857V252.991Z" fill="#E0E0E0"/>
<path d="M194.693 212.991H138.04C137.628 212.991 137.294 213.325 137.294 213.736V216.592C137.294 217.003 137.628 217.337 138.04 217.337H194.693C195.105 217.337 195.438 217.003 195.438 216.592V213.736C195.438 213.325 195.105 212.991 194.693 212.991Z" fill="#EBEBEB"/>
<path d="M81.1545 204.946H129.917C130.701 204.946 131.452 205.257 132.006 205.811C132.56 206.365 132.871 207.116 132.871 207.9V213.455H78.2009V207.9C78.2009 207.116 78.5121 206.365 79.066 205.811C79.6199 205.257 80.3712 204.946 81.1545 204.946Z" fill="#E0E0E0"/>
<path opacity="0.6" d="M81.1545 204.946H95.2194C96.0027 204.946 96.754 205.257 97.3079 205.811C97.8618 206.365 98.173 207.116 98.173 207.9V213.455H78.2009V207.9C78.2009 207.116 78.5121 206.365 79.066 205.811C79.6199 205.257 80.3712 204.946 81.1545 204.946Z" fill="#F0F0F0"/>
<path d="M115.718 252.991H114.08L112.983 212.991H115.718V252.991Z" fill="#E0E0E0"/>
<path d="M79.7409 252.991H78.1023V212.991H80.8309L79.7409 252.991Z" fill="#E0E0E0"/>
<path d="M96.3722 252.991H94.7336V212.991H97.4693L96.3722 252.991Z" fill="#E0E0E0"/>
<path d="M132.357 252.991H130.719L129.622 212.991H132.357V252.991Z" fill="#E0E0E0"/>
<path d="M134.193 212.991H77.5394C77.1277 212.991 76.7939 213.325 76.7939 213.736V216.592C76.7939 217.003 77.1277 217.337 77.5394 217.337H134.193C134.604 217.337 134.938 217.003 134.938 216.592V213.736C134.938 213.325 134.604 212.991 134.193 212.991Z" fill="#EBEBEB"/>
<path d="M175.811 262C251.116 262 312.162 258.436 312.162 254.039C312.162 249.643 251.116 246.079 175.811 246.079C100.506 246.079 39.459 249.643 39.459 254.039C39.459 258.436 100.506 262 175.811 262Z" fill="#F5F5F5"/>
<path d="M263.63 45.8935C265.22 39.1575 261.048 32.408 254.312 30.8182C247.576 29.2283 240.827 33.4001 239.237 40.1361C237.647 46.8722 241.819 53.6216 248.555 55.2115C255.291 56.8013 262.04 52.6295 263.63 45.8935Z" fill="#5FC3E4"/>
<path opacity="0.4" d="M262.185 43.9784C263.127 38.1532 259.168 32.6676 253.342 31.7262C247.517 30.7847 242.032 34.7438 241.09 40.5691C240.149 46.3944 244.108 51.8799 249.933 52.8213C255.758 53.7628 261.244 49.8037 262.185 43.9784Z" fill="white"/>
<path d="M250.938 43.8542C250.817 43.8539 250.699 43.8224 250.594 43.7628L245.671 40.9499C245.591 40.9037 245.52 40.8421 245.464 40.7687C245.407 40.6953 245.365 40.6115 245.341 40.522C245.317 40.4326 245.311 40.3392 245.323 40.2473C245.335 40.1554 245.365 40.0668 245.411 39.9864C245.457 39.9061 245.518 39.8356 245.592 39.779C245.665 39.7225 245.749 39.6809 245.839 39.6568C245.928 39.6326 246.021 39.6263 246.113 39.6382C246.205 39.6501 246.294 39.68 246.374 39.7262L250.263 41.9274V35.6826C250.263 35.4961 250.337 35.3172 250.469 35.1853C250.601 35.0534 250.78 34.9793 250.966 34.9793C251.153 34.9793 251.332 35.0534 251.464 35.1853C251.596 35.3172 251.67 35.4961 251.67 35.6826V43.1299C251.67 43.2538 251.638 43.3757 251.576 43.4831C251.514 43.5906 251.425 43.6798 251.318 43.7417C251.205 43.8148 251.073 43.8539 250.938 43.8542Z" fill="#5FC3E4"/>
<path opacity="0.4" d="M263.63 45.8935C265.22 39.1575 261.048 32.408 254.312 30.8182C247.576 29.2283 240.827 33.4001 239.237 40.1361C237.647 46.8722 241.819 53.6216 248.555 55.2115C255.291 56.8013 262.04 52.6295 263.63 45.8935Z" fill="white"/>
<path d="M67.4341 233.048C67.4341 233.048 68.517 225.122 73.5874 224.25C78.6578 223.378 77.1036 219.552 78.4468 218.068C79.79 216.585 83.2148 220.959 80.2612 225.199C77.3076 229.44 79.7197 228.111 78.4468 232.056C77.174 236.001 66.9699 239.623 67.4341 233.048Z" fill="#263238"/>
<path opacity="0.2" d="M67.4341 233.048C67.4341 233.048 68.517 225.122 73.5874 224.25C78.6578 223.378 77.1036 219.552 78.4468 218.068C79.79 216.585 83.2148 220.959 80.2612 225.199C77.3076 229.44 79.7197 228.111 78.4468 232.056C77.174 236.001 66.9699 239.623 67.4341 233.048Z" fill="white"/>
<path d="M69.1148 238.462H68.9882C68.9026 238.427 68.8343 238.359 68.7976 238.274C68.7609 238.188 68.7586 238.092 68.7913 238.005C68.7913 237.921 71.9418 229.566 68.9179 216.908C67.9776 213.265 66.6601 209.73 64.9868 206.359C62.0543 200.03 59.5296 194.517 63.2779 184.271C64.4312 181.099 65.6338 178.145 66.7941 175.283C71.0909 164.735 74.4806 156.394 70.901 148.68C70.8645 148.593 70.8624 148.497 70.8951 148.409C70.9278 148.321 70.9929 148.25 71.0769 148.208C71.1617 148.17 71.2583 148.167 71.3452 148.2C71.4322 148.233 71.5026 148.299 71.541 148.384C75.2471 156.373 71.8082 164.84 67.4481 175.55C66.2807 178.406 65.0852 181.352 63.9319 184.51C60.2821 194.482 62.638 199.594 65.6127 206.064C67.3128 209.46 68.6562 213.024 69.6211 216.697C72.7013 229.63 69.5016 238.153 69.4664 238.237C69.4386 238.307 69.3898 238.366 69.3267 238.406C69.2637 238.447 69.1896 238.466 69.1148 238.462Z" fill="#263238"/>
<path d="M70.5705 236.613C70.5705 236.613 73.8477 231.69 69.1148 229.13C64.382 226.571 63.4397 228.638 60.5142 226.81C57.5887 224.981 55.3664 220.565 54.8882 223.392C54.41 226.219 57.7715 227.836 56.576 229.13C55.3805 230.424 64.5086 238.835 70.5705 236.613Z" fill="#263238"/>
<path d="M72.9401 152.463C72.9401 152.463 75.3522 142.533 68.0948 142.906C60.8373 143.279 69.5434 151.696 72.9401 152.463Z" fill="#263238"/>
<path d="M67.2512 160.403C67.2512 160.403 64.389 151.781 59.4031 154.073C54.4171 156.366 62.1457 160.972 67.2512 160.403Z" fill="#263238"/>
<path d="M76.0279 160.466C76.0279 160.466 74.6918 153.504 80.1349 152.927C85.578 152.35 83.6441 158.715 76.0279 160.466Z" fill="#263238"/>
<path d="M73.5522 175.107C73.5522 175.107 80.3456 167.998 83.3976 172.646C86.4497 177.294 78.3132 178.919 73.5522 175.107Z" fill="#263238"/>
<path d="M60.5141 174.953C60.5141 174.953 58.2707 164.228 52.6307 168.075C46.9907 171.922 55.4507 176.451 60.5141 174.953Z" fill="#263238"/>
<path d="M56.5548 190.881C56.5548 190.881 60.071 179.587 52.033 181.472C43.9949 183.356 50.6335 188.687 56.5548 190.881Z" fill="#263238"/>
<path d="M69.3118 193.793C69.3118 193.793 75.5073 185.178 80.9504 187.316C86.3935 189.453 82.7507 197.815 69.3118 193.793Z" fill="#263238"/>
<path d="M64.5295 212.161C64.5295 212.161 57.6659 199.679 52.8206 204.461C47.9752 209.243 56.9978 215.087 64.5295 212.161Z" fill="#263238"/>
<path d="M72.9403 210.727C72.9403 210.727 70.5985 200.797 76.4565 201.148C82.3145 201.5 81.2526 207.759 72.9403 210.727Z" fill="#263238"/>
<g opacity="0.2">
<path d="M72.9401 152.463C72.9401 152.463 75.3522 142.533 68.0948 142.906C60.8373 143.279 69.5434 151.696 72.9401 152.463Z" fill="white"/>
<path d="M67.2512 160.403C67.2512 160.403 64.389 151.781 59.4031 154.073C54.4171 156.366 62.1457 160.972 67.2512 160.403Z" fill="white"/>
<path d="M76.0279 160.466C76.0279 160.466 74.6918 153.504 80.1349 152.927C85.578 152.35 83.6441 158.715 76.0279 160.466Z" fill="white"/>
<path d="M73.5522 175.107C73.5522 175.107 80.3456 167.998 83.3976 172.646C86.4497 177.294 78.3132 178.919 73.5522 175.107Z" fill="white"/>
<path d="M60.5141 174.953C60.5141 174.953 58.2707 164.228 52.6307 168.075C46.9907 171.922 55.4507 176.451 60.5141 174.953Z" fill="white"/>
<path d="M56.5548 190.881C56.5548 190.881 60.071 179.587 52.033 181.472C43.9949 183.356 50.6335 188.687 56.5548 190.881Z" fill="white"/>
<path d="M69.3118 193.793C69.3118 193.793 75.5073 185.178 80.9504 187.316C86.3935 189.453 82.7507 197.815 69.3118 193.793Z" fill="white"/>
<path d="M64.5295 212.161C64.5295 212.161 57.6659 199.679 52.8206 204.461C47.9752 209.243 56.9978 215.087 64.5295 212.161Z" fill="white"/>
<path d="M72.9403 210.727C72.9403 210.727 70.5985 200.797 76.4565 201.148C82.3145 201.5 81.2526 207.759 72.9403 210.727Z" fill="white"/>
</g>
<path d="M70.8448 165.965H70.7745C70.6823 165.945 70.6017 165.889 70.5495 165.811C70.5495 165.754 67.3216 160.67 65.1345 159.58C65.0876 159.563 65.0448 159.537 65.0088 159.503C64.9728 159.468 64.9445 159.427 64.9258 159.381C64.9071 159.335 64.8983 159.285 64.9001 159.235C64.9019 159.186 64.9143 159.137 64.9363 159.092C64.9584 159.048 64.9896 159.008 65.028 158.977C65.0664 158.945 65.111 158.922 65.159 158.909C65.207 158.896 65.2572 158.893 65.3063 158.901C65.3554 158.909 65.4023 158.927 65.4439 158.954C67.5044 159.974 70.1978 163.968 70.9503 165.128C74.7408 162.442 77.3287 157.892 77.3569 157.843C77.3788 157.802 77.4088 157.766 77.445 157.737C77.4812 157.708 77.5229 157.687 77.5675 157.674C77.6122 157.662 77.6589 157.658 77.7049 157.664C77.7508 157.67 77.7951 157.686 77.8351 157.709C77.9147 157.756 77.9731 157.832 77.998 157.921C78.0229 158.011 78.0124 158.106 77.9687 158.187C77.8562 158.391 75.1557 163.173 71.0417 165.923C70.9811 165.955 70.9131 165.969 70.8448 165.965Z" fill="#263238"/>
<path d="M65.2892 179.946H65.247C65.1979 179.94 65.1506 179.924 65.1081 179.898C65.0657 179.873 65.0292 179.839 65.0008 179.798C64.9657 179.742 61.0416 174.228 56.4002 171.971C56.3162 171.93 56.2521 171.857 56.2217 171.769C56.1914 171.68 56.1974 171.584 56.2384 171.5C56.2795 171.416 56.3522 171.352 56.4405 171.321C56.5289 171.291 56.6257 171.297 56.7096 171.338C60.9291 173.384 64.4453 177.843 65.3454 179.074C71.2316 174.053 79.0235 173.624 79.1008 173.616C79.1475 173.613 79.1944 173.618 79.2387 173.634C79.2829 173.649 79.3235 173.673 79.3579 173.705C79.3923 173.737 79.4197 173.775 79.4384 173.818C79.4571 173.861 79.4667 173.907 79.4665 173.954C79.4694 174 79.463 174.046 79.4479 174.089C79.4327 174.133 79.409 174.172 79.3782 174.206C79.3475 174.241 79.3102 174.268 79.2686 174.288C79.227 174.307 79.1819 174.318 79.136 174.32C79.0586 174.32 71.2456 174.756 65.5212 179.854C65.4576 179.912 65.3751 179.945 65.2892 179.946Z" fill="#263238"/>
<path d="M62.4902 198.047C62.4202 198.05 62.3511 198.03 62.2932 197.991C57.6448 194.84 53.6012 186.401 53.4324 186.036C53.4122 185.994 53.4006 185.948 53.3982 185.902C53.3958 185.855 53.4026 185.809 53.4183 185.765C53.434 185.721 53.4583 185.681 53.4896 185.646C53.521 185.612 53.5589 185.584 53.6012 185.565C53.6862 185.526 53.7831 185.522 53.8711 185.553C53.9591 185.585 54.0313 185.649 54.0723 185.733C54.0723 185.818 58.0808 194.109 62.5113 197.267C63.8755 196.345 71.5198 191.359 77.645 190.747C77.6912 190.743 77.7378 190.747 77.7823 190.761C77.8267 190.774 77.868 190.796 77.904 190.826C77.9399 190.855 77.9697 190.891 77.9916 190.932C78.0135 190.973 78.0272 191.018 78.0318 191.064C78.0364 191.11 78.0319 191.157 78.0185 191.201C78.0051 191.246 77.9831 191.287 77.9537 191.323C77.9243 191.359 77.8881 191.389 77.8472 191.41C77.8063 191.432 77.7615 191.446 77.7154 191.451C71.2877 192.098 62.7925 197.928 62.7082 197.991C62.6428 198.031 62.5668 198.051 62.4902 198.047Z" fill="#263238"/>
<path d="M69.115 216.001C69.0646 216 69.0149 215.99 68.9689 215.969C68.9229 215.948 68.8816 215.919 68.8477 215.881C66.1116 213.065 62.5811 211.152 58.7281 210.396C58.6819 210.386 58.6381 210.368 58.5991 210.341C58.5602 210.314 58.5269 210.28 58.5011 210.241C58.4753 210.201 58.4575 210.157 58.4488 210.111C58.4401 210.064 58.4406 210.017 58.4503 209.971C58.46 209.924 58.4787 209.881 58.5053 209.842C58.532 209.803 58.566 209.769 58.6055 209.744C58.645 209.718 58.6892 209.7 58.7356 209.691C58.782 209.683 58.8296 209.683 58.8758 209.693C62.7738 210.468 66.3544 212.382 69.1642 215.192C72.16 212.829 75.6692 204.426 75.7044 204.334C75.7407 204.247 75.8101 204.179 75.8971 204.143C75.9841 204.107 76.0818 204.108 76.1685 204.144C76.2552 204.181 76.3239 204.25 76.3596 204.337C76.3952 204.424 76.3947 204.522 76.3584 204.608C76.2037 204.981 72.5257 213.751 69.3259 215.959C69.2616 215.994 69.188 216.009 69.115 216.001Z" fill="#263238"/>
<path d="M70.0642 235.432C70.0642 235.432 72.8772 230.959 76.0488 230.326C79.2204 229.693 80.5917 226.029 81.7662 228.216C82.9406 230.403 79.7057 237.696 70.0642 235.432Z" fill="#263238"/>
<path d="M84.6495 252.991H53.967L51.9136 234.06H86.703L84.6495 252.991Z" fill="#5FC3E4"/>
<path d="M87.4201 237.647H51.1961L50.7319 233.638H87.8842L87.4201 237.647Z" fill="#5FC3E4"/>
<path opacity="0.3" d="M87.4201 237.647H51.1961L50.7319 233.638H87.8842L87.4201 237.647Z" fill="white"/>
<g filter="url(#filter0_d_88_8297)">
<path d="M276.693 93H210.319V236H276.693V93Z" fill="#5FC3E4"/>
<path opacity="0.2" d="M274.576 93H210.319V236H274.576V93Z" fill="white"/>
<path d="M232.566 101.031H218.669V155.284H232.566V101.031Z" fill="#5FC3E4"/>
<path opacity="0.7" d="M231.28 101.031H218.669V155.284H231.28V101.031Z" fill="white"/>
<path d="M223.496 170.484C223.496 170.961 223.354 171.428 223.089 171.825C222.824 172.221 222.447 172.531 222.006 172.713C221.565 172.896 221.08 172.944 220.612 172.851C220.144 172.758 219.714 172.528 219.376 172.19C219.039 171.853 218.809 171.423 218.716 170.955C218.622 170.486 218.67 170.001 218.853 169.56C219.036 169.119 219.345 168.742 219.742 168.477C220.139 168.212 220.605 168.07 221.082 168.07C221.4 168.07 221.714 168.132 222.007 168.253C222.3 168.374 222.566 168.551 222.791 168.776C223.015 169 223.193 169.266 223.314 169.559C223.435 169.852 223.497 170.167 223.496 170.484Z" fill="#5FC3E4"/>
<path d="M223.496 172.897C224.829 172.897 225.909 171.817 225.909 170.484C225.909 169.151 224.829 168.07 223.496 168.07C222.163 168.07 221.083 169.151 221.083 170.484C221.083 171.817 222.163 172.897 223.496 172.897Z" fill="#263238"/>
<path opacity="0.8" d="M223.496 172.897C224.829 172.897 225.909 171.817 225.909 170.484C225.909 169.151 224.829 168.07 223.496 168.07C222.163 168.07 221.083 169.151 221.083 170.484C221.083 171.817 222.163 172.897 223.496 172.897Z" fill="white"/>
</g>
<path d="M182.953 136.479C180.483 135.289 178.1 133.928 175.82 132.407L175.138 126.247L174.502 120.473C179.077 121.555 189.261 129.511 190.909 133.027C192.101 135.545 192.29 140.818 182.953 136.479Z" fill="#5FC3E4"/>
<path d="M153.082 253.538H146.593C146.486 253.538 146.383 253.574 146.3 253.641C146.217 253.709 146.16 253.802 146.138 253.907L145.087 258.662C145.065 258.763 145.063 258.868 145.082 258.97C145.101 259.072 145.141 259.17 145.197 259.256C145.254 259.343 145.328 259.418 145.414 259.476C145.5 259.534 145.597 259.575 145.699 259.595H145.871C147.966 259.595 149.496 259.431 152.148 259.431C153.772 259.431 158.676 259.603 160.913 259.603C163.149 259.603 163.447 257.391 162.537 257.187C158.417 256.284 155.318 255.045 154 253.86C153.747 253.638 153.418 253.523 153.082 253.538Z" fill="#263238"/>
<path d="M180.599 253.366H174.11C174.004 253.367 173.901 253.404 173.818 253.471C173.736 253.537 173.678 253.63 173.655 253.734L172.604 258.489C172.582 258.59 172.58 258.694 172.599 258.796C172.617 258.898 172.656 258.995 172.712 259.082C172.768 259.168 172.841 259.243 172.926 259.302C173.011 259.36 173.107 259.401 173.208 259.423C173.265 259.431 173.323 259.431 173.381 259.423C175.483 259.423 177.013 259.266 179.658 259.266C181.282 259.266 186.178 259.431 188.422 259.431C190.666 259.431 190.956 257.218 190.038 257.014C185.919 256.12 182.82 254.872 181.501 253.687C181.253 253.469 180.93 253.353 180.599 253.366Z" fill="#263238"/>
<path d="M149.848 155.167H177.938C180.612 167.253 188.091 216.108 182.097 254.222L172.581 254.467C172.581 254.467 174.346 196.567 165.949 177.864C164.977 187.876 163.834 198.526 162.839 204.195C160.39 218.144 154.995 254.448 154.995 254.448H145.315C145.315 254.448 147.461 219.426 148.378 205.716C149.374 190.853 149.809 158.221 149.848 155.167Z" fill="#263238"/>
<path opacity="0.2" d="M165.895 183.196C167.278 187.19 168.328 191.292 169.034 195.46C169.818 184.616 166.68 173.105 166.68 173.105L165.895 183.196Z" fill="black"/>
<path d="M178.787 159.63H149.382C149.297 153.365 148.863 147.111 148.083 140.905C147.652 137.512 147.073 133.963 146.305 130.492C145.745 127.913 145.041 125.374 144.199 122.891C144.199 122.891 157.842 117.207 175.311 120.479C177.526 133.387 178.69 146.49 178.787 159.63Z" fill="#5FC3E4"/>
<path d="M176.754 163.524H178.621L177.994 160.016L176.479 160.032L176.754 163.524Z" fill="black"/>
<path opacity="0.2" d="M145.315 254.443H155.003C155.003 254.443 160.403 219.648 162.855 206.314C163.851 200.891 164.994 190.691 165.967 181.103C167.339 184.244 168.38 187.469 169.08 190.747C174.099 212.238 172.574 254.467 172.574 254.467L182.09 254.369C188.098 217.865 180.612 170.854 177.935 159.63H149.852C149.813 162.302 149.385 193.678 148.381 207.931C147.463 221.037 145.315 254.443 145.315 254.443Z" fill="white"/>
<path d="M158.182 163.516L175.875 163.524L175.608 160.04L158.182 160.252V163.516Z" fill="black"/>
<path d="M157.303 160.267L149.645 160.354V163.516H157.303V160.267Z" fill="black"/>
<path d="M170.21 159.804C169.991 159.608 165.095 159.679 164.718 160.118C164.718 160.118 164.53 163.445 164.757 163.735C164.985 164.026 169.677 163.618 170.116 163.602C170.556 163.586 170.399 160.001 170.21 159.804ZM169.669 163.28C169.3 163.28 165.456 163.626 165.267 163.382C165.161 162.394 165.148 161.399 165.228 160.409C165.526 160.055 169.551 159.993 169.732 160.157C169.912 160.322 170.03 163.265 169.669 163.28Z" fill="white"/>
<path d="M169.355 161.123H168.39C168.3 161.125 168.215 161.16 168.15 161.223C168.086 161.286 168.048 161.37 168.045 161.46C168.041 161.51 168.048 161.559 168.066 161.606C168.083 161.653 168.11 161.695 168.145 161.731C168.179 161.767 168.221 161.794 168.268 161.813C168.314 161.831 168.364 161.839 168.413 161.837L169.378 161.797C169.427 161.796 169.475 161.784 169.518 161.763C169.562 161.742 169.601 161.712 169.633 161.675C169.664 161.638 169.688 161.595 169.702 161.549C169.717 161.502 169.721 161.453 169.716 161.405C169.698 161.323 169.652 161.251 169.586 161.199C169.52 161.148 169.438 161.121 169.355 161.123Z" fill="white"/>
<path opacity="0.2" d="M148.343 138.958C147.911 135.89 147.331 132.681 146.562 129.543C146.911 129.286 147.294 129.078 147.699 128.923C147.699 128.923 150.43 134.541 148.343 138.958Z" fill="black"/>
<path d="M144.451 122.654C138.668 125.4 130.783 142.27 132.391 147.982C133.999 153.694 148.162 161.964 148.162 161.964L143.721 166.263C143.721 166.263 147.307 169.308 148.923 168.955C150.539 168.602 152.391 164.655 152.274 162.678C152.156 160.7 149.684 159.053 149.684 159.053C149.684 159.053 139.625 148.303 139.421 145.816C138.927 139.829 146.742 130.123 146.742 130.123L144.451 122.654Z" fill="#B97964"/>
<path d="M144.451 122.654C141.179 123.297 131.253 136.338 132.179 146.977L140.104 145.84C140.104 145.84 142.458 137.829 147.331 132.98C147.331 132.98 148.437 130.037 147.025 125.282C146.499 123.493 144.451 122.654 144.451 122.654Z" fill="#5FC3E4"/>
<path d="M131.63 146.554L140.638 145.408V146.554L131.63 148.704V146.554Z" fill="#5FC3E4"/>
<path opacity="0.2" d="M131.63 146.554L140.638 145.408V146.554L131.63 148.704V146.554Z" fill="white"/>
<path opacity="0.2" d="M182.953 136.479C180.483 135.289 178.1 133.928 175.82 132.407L175.138 126.247C176.778 127.142 182.819 130.853 182.953 136.479Z" fill="black"/>
<path d="M185.448 130.429C185.448 130.429 174.652 129.127 172.69 129.449C170.728 129.77 166.476 133.513 166.311 133.646C166.146 133.78 169.293 137.805 169.959 137.664C170.626 137.523 174.087 133.984 174.181 133.646C174.275 133.309 174.463 132.752 174.463 132.752L184.742 136.063C184.742 136.063 187.033 132.666 185.448 130.429Z" fill="#B97964"/>
<path d="M173.482 129.449C174.149 130.516 174.498 131.752 174.487 133.011H175.577C175.854 132.482 176.018 131.902 176.06 131.306C176.102 130.711 176.02 130.113 175.821 129.551L173.482 129.449Z" fill="#5FC3E4"/>
<path opacity="0.2" d="M173.482 129.449C174.149 130.516 174.498 131.752 174.487 133.011H175.577C175.854 132.482 176.018 131.902 176.06 131.306C176.102 130.711 176.02 130.113 175.821 129.551L173.482 129.449Z" fill="black"/>
<path d="M176.189 129.81C176.189 130.21 175.483 130.477 174.69 130.414C173.898 130.351 173.27 129.982 173.302 129.629C173.333 129.276 174 128.962 174.8 129.025C175.601 129.088 176.22 129.417 176.189 129.81Z" fill="#263238"/>
<path d="M175.821 129.527C175.821 129.817 175.311 130.021 174.722 129.974C174.134 129.927 173.679 129.653 173.702 129.362C173.726 129.072 174.22 128.876 174.801 128.923C175.381 128.97 175.844 129.237 175.821 129.527Z" fill="#5FC3E4"/>
<path opacity="0.7" d="M175.821 129.527C175.821 129.817 175.311 130.021 174.722 129.974C174.134 129.927 173.679 129.653 173.702 129.362C173.726 129.072 174.22 128.876 174.801 128.923C175.381 128.97 175.844 129.237 175.821 129.527Z" fill="white"/>
<path d="M184.483 136.51L185.793 129.786L186.861 130.194L186.492 137.271L184.483 136.51Z" fill="#5FC3E4"/>
<path opacity="0.2" d="M184.483 136.51L185.793 129.786L186.861 130.194L186.492 137.271L184.483 136.51Z" fill="white"/>
<path d="M150.932 122.654C150.932 122.654 152.109 119.664 157.751 118.684C163.392 117.703 169.583 120.292 171.089 122.175L166.248 122.654L163.792 127.997L158.213 123.234L150.932 122.654Z" fill="#5FC3E4"/>
<path opacity="0.2" d="M150.932 122.654C150.932 122.654 152.109 119.664 157.751 118.684C163.392 117.703 169.583 120.292 171.089 122.175L166.248 122.654L163.792 127.997L158.213 123.234L150.932 122.654Z" fill="white"/>
<path d="M153.976 121.006C155.059 121.987 156.801 122.411 158.464 122.575L163.533 127.283L165.016 122.136C165.016 122.136 166.938 121.453 166.099 120.206C163.745 119.821 162.623 118.723 162.175 117.326C161.917 116.459 161.837 115.549 161.94 114.651C161.975 114.148 162.041 113.647 162.136 113.152L154.251 107.314C155.263 111.12 156.526 118.213 153.976 121.006Z" fill="#B97964"/>
<path opacity="0.2" d="M156.048 110.979C156.362 115.686 160.246 117.012 162.153 117.256C161.894 116.389 161.814 115.479 161.917 114.58L156.048 110.979Z" fill="black"/>
<path d="M169.865 97.3338C169.865 97.3338 170.767 103.391 166.86 106.224C162.952 109.056 162.937 95.3487 162.937 95.3487L169.865 97.3338Z" fill="#263238"/>
<path d="M155.49 112.077C156.309 113.288 157.502 114.197 158.887 114.665C160.271 115.133 161.771 115.133 163.156 114.666C164.961 114.093 166.481 112.856 167.409 111.206C167.535 110.981 167.652 110.746 167.762 110.5C169.684 105.996 170.296 98.1263 165.542 95.1839C163.917 94.1625 161.953 93.8275 160.082 94.2527C158.211 94.6779 156.585 95.8284 155.561 97.4515C154.949 98.4106 154.577 99.5035 154.478 100.637C153.921 105.894 153.333 108.962 155.49 112.077Z" fill="#B97964"/>
<path d="M162.176 103.446C162.074 103.862 162.262 104.231 162.544 104.301C162.827 104.372 163.109 104.042 163.18 103.619C163.25 103.195 163.086 102.834 162.811 102.763C162.536 102.693 162.254 103.022 162.176 103.446Z" fill="#263238"/>
<path d="M166.978 104.27C166.876 104.686 167.072 105.055 167.347 105.117C167.621 105.18 167.912 104.858 167.982 104.435C168.053 104.011 167.888 103.65 167.613 103.579C167.339 103.509 167.048 103.862 166.978 104.27Z" fill="#263238"/>
<path d="M165.417 104.215C165.698 105.6 166.17 106.939 166.821 108.193C166.495 108.352 166.137 108.438 165.774 108.445C165.411 108.452 165.05 108.379 164.718 108.232L165.417 104.215Z" fill="#A24E3F"/>
<path d="M160.983 101.665C161.028 101.678 161.074 101.679 161.12 101.67C161.165 101.66 161.207 101.64 161.242 101.61C161.466 101.385 161.74 101.217 162.041 101.118C162.343 101.02 162.663 100.995 162.976 101.045C163.009 101.053 163.042 101.055 163.076 101.05C163.109 101.045 163.14 101.033 163.169 101.015C163.197 100.998 163.222 100.975 163.242 100.948C163.261 100.92 163.275 100.889 163.282 100.857C163.29 100.825 163.292 100.793 163.287 100.76C163.283 100.728 163.272 100.697 163.255 100.67C163.238 100.642 163.216 100.618 163.19 100.599C163.163 100.58 163.133 100.566 163.102 100.559C162.708 100.487 162.303 100.511 161.921 100.628C161.539 100.745 161.19 100.953 160.905 101.233C160.858 101.282 160.832 101.346 160.832 101.414C160.832 101.481 160.858 101.546 160.905 101.594C160.927 101.622 160.953 101.646 160.983 101.665Z" fill="#263238"/>
<path d="M160.669 108.334C161.291 108.374 161.894 108.562 162.429 108.881C162.964 109.2 163.415 109.642 163.745 110.17C163.76 110.202 163.762 110.238 163.752 110.271C163.742 110.304 163.72 110.333 163.69 110.351C163.676 110.36 163.66 110.367 163.643 110.37C163.627 110.372 163.609 110.372 163.593 110.367C163.577 110.363 163.561 110.355 163.548 110.344C163.535 110.333 163.525 110.319 163.518 110.304C163.204 109.819 162.782 109.415 162.285 109.122C161.788 108.829 161.229 108.656 160.654 108.617C160.62 108.615 160.588 108.6 160.564 108.575C160.541 108.55 160.528 108.517 160.528 108.483C160.53 108.449 160.545 108.417 160.57 108.394C160.595 108.371 160.627 108.358 160.661 108.358L160.669 108.334Z" fill="#263238"/>
<path d="M169.323 102.967C169.369 102.983 169.419 102.983 169.465 102.967C169.528 102.949 169.582 102.907 169.616 102.85C169.649 102.793 169.66 102.726 169.645 102.661C169.542 102.271 169.345 101.911 169.071 101.613C168.798 101.315 168.456 101.088 168.076 100.951C168.044 100.941 168.01 100.938 167.977 100.942C167.944 100.945 167.912 100.955 167.883 100.971C167.853 100.988 167.828 101.009 167.807 101.035C167.786 101.061 167.771 101.091 167.762 101.124C167.745 101.188 167.753 101.257 167.785 101.315C167.817 101.374 167.871 101.417 167.935 101.437C168.23 101.555 168.493 101.741 168.703 101.98C168.913 102.218 169.063 102.503 169.143 102.811C169.159 102.849 169.184 102.882 169.215 102.91C169.246 102.937 169.283 102.957 169.323 102.967Z" fill="#263238"/>
<path d="M162.286 92.1866C161.658 92.1003 161.03 92.0297 160.402 91.9983C158.58 91.8288 156.748 92.1942 155.13 93.0497C151.497 95.2074 152.125 100.723 152.595 104.301C153.215 109.056 155.083 111.206 155.083 111.206C153.953 108.938 154.298 104.521 155.028 104.411C155.757 104.301 155.71 105.149 155.71 105.149C157.35 104.129 158.849 101.226 158.315 99.2012C157.923 97.6319 159.673 96.4864 161.14 97.2161L161.587 97.4358L162.286 97.7575V92.1866Z" fill="#263238"/>
<path d="M151.497 104.529C151.683 105.162 151.993 105.751 152.407 106.264C152.822 106.777 153.334 107.203 153.914 107.518C155.483 108.358 156.628 107.055 156.526 105.384C156.417 103.901 155.499 101.634 153.772 101.461C153.392 101.431 153.009 101.497 152.661 101.655C152.314 101.813 152.012 102.057 151.784 102.364C151.557 102.671 151.411 103.031 151.361 103.409C151.31 103.788 151.357 104.173 151.497 104.529Z" fill="#B97964"/>
<path d="M164.388 96.7061C164.043 97.3103 164.906 99.2561 162.952 98.7932C160.999 98.3303 160.865 99.1541 159.484 100.496C158.103 101.838 155.294 99.7975 155.294 99.7975L152.234 100.198C152.234 100.198 149.99 98.189 151.395 97.1063C152.799 96.0235 153.105 94.4856 153.961 92.6731C154.816 90.8606 158.629 88.5067 162.67 91.2608C162.67 91.2608 164.82 90.5232 165.769 91.0568C166.478 91.5698 167.061 92.238 167.472 93.0105C167.602 92.8497 167.766 92.7189 167.951 92.6269C168.137 92.5348 168.34 92.4837 168.546 92.477C168.753 92.4703 168.959 92.5082 169.15 92.5881C169.341 92.6679 169.513 92.7879 169.653 92.9399C170.752 94.0854 169.881 98.1812 170.822 99.2169C171.764 100.253 169.653 101.516 169.653 101.516C169.653 101.516 167.998 101.124 167.998 99.9074C167.998 97.7575 167.684 96.9886 166.632 96.5962C166.437 96.5298 166.226 96.5266 166.029 96.5872C165.831 96.6478 165.658 96.769 165.534 96.9336C165.534 96.9336 164.906 95.7488 164.388 96.7061Z" fill="#263238"/>
<defs>
<filter id="filter0_d_88_8297" x="206.319" y="92" width="74.3738" height="151" filterUnits="userSpaceOnUse" color-interpolation-filters="sRGB">
<feFlood flood-opacity="0" result="BackgroundImageFix"/>
<feColorMatrix in="SourceAlpha" type="matrix" values="0 0 0 0 0 0 0 0 0 0 0 0 0 0 0 0 0 0 127 0" result="hardAlpha"/>
<feOffset dy="3"/>
<feGaussianBlur stdDeviation="2"/>
<feComposite in2="hardAlpha" operator="out"/>
<feColorMatrix type="matrix" values="0 0 0 0 0 0 0 0 0 0 0 0 0 0 0 0 0 0 0.25 0"/>
<feBlend mode="normal" in2="BackgroundImageFix" result="effect1_dropShadow_88_8297"/>
<feBlend mode="normal" in="SourceGraphic" in2="effect1_dropShadow_88_8297" result="shape"/>
</filter>
</defs>
</svg>
