<svg width="24" height="25" viewBox="0 0 24 25" fill="none" xmlns="http://www.w3.org/2000/svg">
<path d="M11.9319 22C13.301 22 14.5899 21.7385 15.7985 21.2156C17.0071 20.6928 18.0733 19.9706 18.9969 19.049C19.9206 18.1274 20.6445 17.0637 21.1685 15.8578C21.6926 14.652 21.9546 13.366 21.9546 12C21.9546 10.634 21.6926 9.34803 21.1685 8.14214C20.6445 6.93627 19.9206 5.87255 18.9969 4.95097C18.0733 4.02941 17.0055 3.30719 15.7936 2.78431C14.5817 2.26144 13.2912 2 11.9221 2C10.553 2 9.26409 2.26144 8.05546 2.78431C6.84684 3.30719 5.78234 4.02941 4.86195 4.95097C3.94156 5.87255 3.21934 6.93627 2.69528 8.14214C2.17121 9.34803 1.90918 10.634 1.90918 12C1.90918 13.366 2.17121 14.652 2.69528 15.8578C3.21934 17.0637 3.9432 18.1274 4.86686 19.049C5.79053 19.9706 6.85667 20.6928 8.06528 21.2156C9.27391 21.7385 10.5628 22 11.9319 22ZM11.9319 20.3333C10.7724 20.3333 9.68825 20.1176 8.67943 19.6863C7.67061 19.2549 6.78461 18.6585 6.02144 17.8971C5.25827 17.1356 4.66215 16.2517 4.23307 15.2451C3.804 14.2386 3.58946 13.1569 3.58946 12C3.58946 10.8431 3.804 9.76143 4.23307 8.7549C4.66215 7.74836 5.25664 6.86274 6.01653 6.09803C6.77642 5.33333 7.66077 4.73692 8.6696 4.30882C9.67842 3.88072 10.7626 3.66667 11.9221 3.66667C13.0816 3.66667 14.1657 3.88072 15.1745 4.30882C16.1834 4.73692 17.071 5.33333 17.8375 6.09803C18.6039 6.86274 19.2033 7.74836 19.6356 8.7549C20.068 9.76143 20.2841 10.8431 20.2841 12C20.2841 13.1569 20.0696 14.2386 19.6406 15.2451C19.2115 16.2517 18.6153 17.1356 17.8521 17.8971C17.089 18.6585 16.2013 19.2549 15.1892 19.6863C14.1772 20.1176 13.0914 20.3333 11.9319 20.3333ZM18.653 18.4608L18.6235 18.353C18.4598 17.8693 18.0782 17.3954 17.4787 16.9313C16.8794 16.4673 16.1064 16.085 15.1598 15.7843C14.2132 15.4836 13.1372 15.3333 11.9319 15.3333C10.7331 15.3333 9.66041 15.4836 8.71382 15.7843C7.76723 16.085 6.99259 16.4673 6.38992 16.9313C5.78725 17.3954 5.40403 17.866 5.24026 18.3431L5.21078 18.4608C5.80035 19.0424 6.49801 19.5392 7.30376 19.951C8.10951 20.3627 8.92344 20.6781 9.74557 20.897C10.5677 21.116 11.2965 21.2255 11.9319 21.2255C12.5739 21.2255 13.3043 21.116 14.1232 20.897C14.942 20.6781 15.7527 20.3627 16.5552 19.951C17.3576 19.5392 18.0569 19.0424 18.653 18.4608ZM11.9319 13.6667C12.5607 13.6732 13.1307 13.5147 13.6417 13.1912C14.1526 12.8677 14.5571 12.4248 14.8552 11.8627C15.1532 11.3006 15.3022 10.6699 15.3022 9.97057C15.3022 9.31044 15.1516 8.70587 14.8502 8.15685C14.5489 7.60784 14.1444 7.1683 13.6368 6.83823C13.129 6.50816 12.5607 6.34313 11.9319 6.34313C11.303 6.34313 10.7331 6.50816 10.2221 6.83823C9.71118 7.1683 9.30503 7.60784 9.00369 8.15685C8.70235 8.70587 8.55496 9.31044 8.56151 9.97057C8.56806 10.6699 8.72037 11.2974 9.01843 11.8529C9.31649 12.4085 9.71937 12.848 10.227 13.1715C10.7347 13.4951 11.303 13.6601 11.9319 13.6667Z" fill="#428194"/>
</svg>
