<svg width="24" height="25" viewBox="0 0 24 25" fill="none" xmlns="http://www.w3.org/2000/svg">
<mask id="path-1-inside-1_433_5691" fill="white">
<path fill-rule="evenodd" clip-rule="evenodd" d="M14.386 12.8335C14.2481 12.4435 13.9927 12.1059 13.6549 11.8671C13.3171 11.6282 12.9137 11.5 12.5 11.5V11H11.5V11.5C10.9696 11.5 10.4609 11.7107 10.0858 12.0858C9.71071 12.4609 9.5 12.9696 9.5 13.5C9.5 14.0304 9.71071 14.5391 10.0858 14.9142C10.4609 15.2893 10.9696 15.5 11.5 15.5V17.5C11.065 17.5 10.6945 17.2225 10.5565 16.8335C10.536 16.7699 10.503 16.711 10.4594 16.6603C10.4157 16.6097 10.3624 16.5683 10.3025 16.5386C10.2426 16.5089 10.1773 16.4916 10.1106 16.4875C10.0439 16.4835 9.97699 16.4929 9.91396 16.5152C9.85092 16.5375 9.79299 16.5721 9.7436 16.6172C9.6942 16.6622 9.65434 16.7167 9.62637 16.7775C9.59841 16.8382 9.5829 16.9039 9.58078 16.9707C9.57865 17.0376 9.58995 17.1041 9.614 17.1665C9.75192 17.5565 10.0073 17.8941 10.3451 18.1329C10.6829 18.3718 11.0863 18.5 11.5 18.5V19H12.5V18.5C13.0304 18.5 13.5391 18.2893 13.9142 17.9142C14.2893 17.5391 14.5 17.0304 14.5 16.5C14.5 15.9696 14.2893 15.4609 13.9142 15.0858C13.5391 14.7107 13.0304 14.5 12.5 14.5V12.5C12.7068 12.4999 12.9085 12.564 13.0774 12.6834C13.2463 12.8027 13.374 12.9715 13.443 13.1665C13.4872 13.2915 13.5792 13.3939 13.6988 13.4511C13.7581 13.4795 13.8223 13.4958 13.8879 13.4993C13.9535 13.5028 14.0191 13.4934 14.081 13.4715C14.1429 13.4496 14.1999 13.4158 14.2488 13.3719C14.2976 13.328 14.3373 13.2749 14.3656 13.2157C14.394 13.1564 14.4103 13.0922 14.4138 13.0266C14.4173 12.961 14.4079 12.8954 14.386 12.8335ZM11.5 12.5C11.2348 12.5 10.9804 12.6054 10.7929 12.7929C10.6054 12.9804 10.5 13.2348 10.5 13.5C10.5 13.7652 10.6054 14.0196 10.7929 14.2071C10.9804 14.3946 11.2348 14.5 11.5 14.5V12.5ZM12.5 17.5C12.7652 17.5 13.0196 17.3946 13.2071 17.2071C13.3946 17.0196 13.5 16.7652 13.5 16.5C13.5 16.2348 13.3946 15.9804 13.2071 15.7929C13.0196 15.6054 12.7652 15.5 12.5 15.5V17.5Z"/>
</mask>
<path d="M14.386 12.8335L15.8004 12.334L15.8002 12.3334L14.386 12.8335ZM12.5 11.5H11V13L12.5 13L12.5 11.5ZM12.5 11H14V9.5H12.5V11ZM11.5 11V9.5H10V11H11.5ZM11.5 11.5V13H13V11.5H11.5ZM11.5 15.5H13V14H11.5V15.5ZM11.5 17.5V19H13V17.5H11.5ZM10.5565 16.8335L9.12857 17.2929L9.13539 17.3141L9.14282 17.335L10.5565 16.8335ZM9.614 17.1665L11.0282 16.6664L11.0211 16.6465L11.0136 16.6269L9.614 17.1665ZM11.5 18.5H13V17L11.5 17L11.5 18.5ZM11.5 19H10V20.5H11.5V19ZM12.5 19V20.5H14V19H12.5ZM12.5 18.5V17H11V18.5H12.5ZM12.5 14.5H11V16H12.5V14.5ZM12.5 12.5L12.4996 11L11 11.0004V12.5H12.5ZM13.443 13.1665L14.8574 12.667L14.8571 12.6663L13.443 13.1665ZM13.6988 13.4511L14.3458 12.0978L13.6988 13.4511ZM11.5 12.5H13V11H11.5V12.5ZM11.5 14.5V16H13V14.5H11.5ZM12.5 17.5H11V19H12.5V17.5ZM12.5 15.5V14H11V15.5H12.5ZM15.8002 12.3334C15.5588 11.651 15.1119 11.0602 14.5209 10.6423L12.7889 13.0918C12.8734 13.1516 12.9373 13.2361 12.9718 13.3336L15.8002 12.3334ZM14.5209 10.6423C13.9299 10.2244 13.2238 10 12.5 10L12.5 13C12.6035 13 12.7044 13.0321 12.7889 13.0918L14.5209 10.6423ZM14 11.5V11H11V11.5H14ZM12.5 9.5H11.5V12.5H12.5V9.5ZM10 11V11.5H13V11H10ZM11.5 10C10.5717 10 9.6815 10.3688 9.02513 11.0251L11.1464 13.1464C11.2402 13.0527 11.3674 13 11.5 13V10ZM9.02513 11.0251C8.36875 11.6815 8 12.5717 8 13.5H11C11 13.3674 11.0527 13.2402 11.1464 13.1464L9.02513 11.0251ZM8 13.5C8 14.4283 8.36875 15.3185 9.02513 15.9749L11.1464 13.8536C11.0527 13.7598 11 13.6326 11 13.5H8ZM9.02513 15.9749C9.6815 16.6312 10.5717 17 11.5 17V14C11.3674 14 11.2402 13.9473 11.1464 13.8536L9.02513 15.9749ZM10 15.5V17.5H13V15.5H10ZM11.5 16C11.7196 16 11.9025 16.1411 11.9702 16.332L9.14282 17.335C9.48654 18.3039 10.4104 19 11.5 19V16ZM11.9844 16.3741C11.9025 16.1195 11.7704 15.884 11.5959 15.6814L9.32285 17.6393C9.23558 17.5379 9.16952 17.4202 9.12857 17.2929L11.9844 16.3741ZM11.5959 15.6814C11.4214 15.4787 11.208 15.3132 10.9683 15.1945L9.63661 17.8827C9.51681 17.8233 9.41011 17.7406 9.32285 17.6393L11.5959 15.6814ZM10.9683 15.1945C10.7287 15.0758 10.4677 15.0063 10.2008 14.9902L10.0204 17.9848C9.88692 17.9768 9.75642 17.942 9.63661 17.8827L10.9683 15.1945ZM10.2008 14.9902C9.93385 14.9742 9.6664 15.0118 9.41426 15.1009L10.4137 17.9295C10.2876 17.974 10.1539 17.9929 10.0204 17.9848L10.2008 14.9902ZM9.41426 15.1009C9.16211 15.19 8.9304 15.3287 8.73281 15.5089L10.7544 17.7255C10.6556 17.8156 10.5397 17.885 10.4137 17.9295L9.41426 15.1009ZM8.73281 15.5089C8.53522 15.6891 8.37578 15.9071 8.26392 16.15L10.9888 17.4049C10.9329 17.5264 10.8532 17.6354 10.7544 17.7255L8.73281 15.5089ZM8.26392 16.15C8.15206 16.3929 8.09004 16.6558 8.08154 16.923L11.08 17.0184C11.0758 17.1521 11.0448 17.2835 10.9888 17.4049L8.26392 16.15ZM8.08154 16.923C8.07303 17.1903 8.11823 17.4566 8.21443 17.7061L11.0136 16.6269C11.0617 16.7516 11.0843 16.8848 11.08 17.0184L8.08154 16.923ZM8.19983 17.6666C8.44117 18.349 8.88811 18.9398 9.47912 19.3577L11.2111 16.9082C11.1266 16.8484 11.0627 16.7639 11.0282 16.6664L8.19983 17.6666ZM9.47912 19.3577C10.0701 19.7756 10.7762 20 11.5 20L11.5 17C11.3965 17 11.2956 16.9679 11.2111 16.9082L9.47912 19.3577ZM10 18.5V19H13V18.5H10ZM11.5 20.5H12.5V17.5H11.5V20.5ZM14 19V18.5H11V19H14ZM12.5 20C13.4283 20 14.3185 19.6313 14.9749 18.9749L12.8536 16.8536C12.7598 16.9473 12.6326 17 12.5 17V20ZM14.9749 18.9749C15.6312 18.3185 16 17.4283 16 16.5H13C13 16.6326 12.9473 16.7598 12.8536 16.8536L14.9749 18.9749ZM16 16.5C16 15.5717 15.6312 14.6815 14.9749 14.0251L12.8536 16.1464C12.9473 16.2402 13 16.3674 13 16.5H16ZM14.9749 14.0251C14.3185 13.3688 13.4283 13 12.5 13V16C12.6326 16 12.7598 16.0527 12.8536 16.1464L14.9749 14.0251ZM14 14.5V12.5H11V14.5H14ZM12.5004 14C12.397 14 12.2961 13.968 12.2117 13.9083L13.9432 11.4585C13.521 11.16 13.0166 10.9999 12.4996 11L12.5004 14ZM12.2117 13.9083C12.1272 13.8486 12.0634 13.7642 12.0289 13.6667L14.8571 12.6663C14.6847 12.1788 14.3654 11.7569 13.9432 11.4585L12.2117 13.9083ZM12.0286 13.666C12.2052 14.1661 12.5733 14.5757 13.0519 14.8044L14.3458 12.0978C14.5851 12.2122 14.7691 12.417 14.8574 12.667L12.0286 13.666ZM13.0519 14.8044C13.2888 14.9177 13.5458 14.9832 13.8081 14.9972L13.9677 12.0015C14.0988 12.0084 14.2273 12.0412 14.3458 12.0978L13.0519 14.8044ZM13.8081 14.9972C14.0703 15.0112 14.3328 14.9734 14.5805 14.8859L13.5815 12.0571C13.7054 12.0134 13.8366 11.9945 13.9677 12.0015L13.8081 14.9972ZM14.5805 14.8859C14.8281 14.7984 15.0561 14.6631 15.2515 14.4875L13.246 12.2563C13.3437 12.1685 13.4577 12.1008 13.5815 12.0571L14.5805 14.8859ZM15.2515 14.4875C15.4468 14.3119 15.6057 14.0996 15.7189 13.8626L13.0123 12.5687C13.069 12.4502 13.1484 12.3441 13.246 12.2563L15.2515 14.4875ZM15.7189 13.8626C15.8322 13.6257 15.8977 13.3687 15.9117 13.1064L12.916 12.9468C12.9229 12.8157 12.9557 12.6872 13.0123 12.5687L15.7189 13.8626ZM15.9117 13.1064C15.9257 12.8442 15.8879 12.5817 15.8004 12.334L12.9716 13.333C12.9279 13.2091 12.909 13.0779 12.916 12.9468L15.9117 13.1064ZM11.5 11C10.837 11 10.2011 11.2634 9.73223 11.7322L11.8536 13.8536C11.7598 13.9473 11.6326 14 11.5 14V11ZM9.73223 11.7322C9.26339 12.2011 9 12.837 9 13.5H12C12 13.6326 11.9473 13.7598 11.8536 13.8536L9.73223 11.7322ZM9 13.5C9 14.163 9.26339 14.7989 9.73223 15.2678L11.8536 13.1464C11.9473 13.2402 12 13.3674 12 13.5H9ZM9.73223 15.2678C10.2011 15.7366 10.837 16 11.5 16V13C11.6326 13 11.7598 13.0527 11.8536 13.1464L9.73223 15.2678ZM13 14.5V12.5H10V14.5H13ZM12.5 19C13.163 19 13.7989 18.7366 14.2678 18.2678L12.1464 16.1464C12.2402 16.0527 12.3674 16 12.5 16V19ZM14.2678 18.2678C14.7366 17.7989 15 17.163 15 16.5H12C12 16.3674 12.0527 16.2402 12.1464 16.1464L14.2678 18.2678ZM15 16.5C15 15.837 14.7366 15.2011 14.2678 14.7322L12.1464 16.8536C12.0527 16.7598 12 16.6326 12 16.5H15ZM14.2678 14.7322C13.7989 14.2634 13.163 14 12.5 14V17C12.3674 17 12.2402 16.9473 12.1464 16.8536L14.2678 14.7322ZM11 15.5V17.5H14V15.5H11Z" fill="#428194" mask="url(#path-1-inside-1_433_5691)"/>
<path fill-rule="evenodd" clip-rule="evenodd" d="M6.57649 4.8105C7.80349 4.21 9.81649 3.5 12.0195 3.5C14.1765 3.5 16.1365 4.1805 17.357 4.773L17.426 4.8065C17.794 4.9885 18.091 5.1605 18.3 5.3L16.453 8C20.711 12.353 24 21.4985 12.0195 21.4985C0.03899 21.4985 3.23949 12.519 7.53449 8L5.69949 5.3C5.84099 5.2075 6.02049 5.1 6.23449 4.986C6.34049 4.929 6.45449 4.87 6.57649 4.8105ZM15.266 7.964L16.7445 5.8025C15.3695 5.9015 13.7335 6.2245 12.1585 6.6805C11.0335 7.0055 9.78349 6.956 8.62599 6.7425C8.33431 6.68842 8.04462 6.62405 7.75749 6.5495L8.71749 7.963C10.775 8.6955 13.208 8.6955 15.266 7.964ZM8.13999 8.815C10.5475 9.745 13.441 9.745 15.8485 8.814C16.8534 9.87335 17.6941 11.0772 18.3425 12.3855C19.0185 13.7645 19.3865 15.143 19.3265 16.331C19.2685 17.4775 18.8175 18.457 17.7875 19.185C16.714 19.9435 14.9085 20.4985 12.019 20.4985C9.12649 20.4985 7.31249 19.953 6.22899 19.203C5.19149 18.4845 4.73599 17.518 4.67149 16.387C4.60399 15.212 4.96399 13.8405 5.63749 12.452C6.27999 11.128 7.17649 9.8535 8.13999 8.815ZM7.56499 5.458C7.96499 5.577 8.38299 5.6805 8.80699 5.759C9.88199 5.957 10.96 5.986 11.88 5.7195C12.9521 5.40717 14.0425 5.16154 15.145 4.984C14.225 4.707 13.149 4.5 12.019 4.5C10.2965 4.5 8.68999 4.9805 7.56499 5.458Z" stroke="#428194"/>
</svg>
