<svg width="24" height="22" viewBox="0 0 24 22" fill="none" xmlns="http://www.w3.org/2000/svg">
<path fill-rule="evenodd" clip-rule="evenodd" d="M2.20752 5.58071C2.20752 4.84922 2.50168 4.1477 3.0253 3.63046C3.54891 3.11321 4.25909 2.82263 4.99959 2.82263C5.7401 2.82263 6.45027 3.11321 6.97389 3.63046C7.4975 4.1477 7.79167 4.84922 7.79167 5.58071C7.79167 6.3122 7.4975 7.01373 6.97389 7.53097C6.45027 8.04821 5.7401 8.33879 4.99959 8.33879C4.25909 8.33879 3.54891 8.04821 3.0253 7.53097C2.50168 7.01373 2.20752 6.3122 2.20752 5.58071ZM4.99959 3.6936C4.49293 3.6936 4.00702 3.89242 3.64876 4.24633C3.2905 4.60023 3.08923 5.08022 3.08923 5.58071C3.08923 6.08121 3.2905 6.5612 3.64876 6.9151C4.00702 7.269 4.49293 7.46782 4.99959 7.46782C5.50625 7.46782 5.99216 7.269 6.35043 6.9151C6.70869 6.5612 6.90996 6.08121 6.90996 5.58071C6.90996 5.08022 6.70869 4.60023 6.35043 4.24633C5.99216 3.89242 5.50625 3.6936 4.99959 3.6936Z" fill="#0E3158"/>
<path fill-rule="evenodd" clip-rule="evenodd" d="M0.0177727 4.91699C0.118244 3.71319 0.673308 2.59074 1.57276 1.77248C2.47221 0.954216 3.65027 0.499996 4.87304 0.5H5.12697C6.34975 0.499996 7.52781 0.954216 8.42726 1.77248C9.32671 2.59074 9.88177 3.71319 9.98224 4.91699C10.094 6.25788 9.6747 7.58929 8.81251 8.63082L5.99516 12.034C5.87459 12.1797 5.72277 12.297 5.55066 12.3776C5.37856 12.4582 5.19047 12.5 5.00001 12.5C4.80955 12.5 4.62146 12.4582 4.44936 12.3776C4.27725 12.297 4.12543 12.1797 4.00485 12.034L1.1875 8.63082C0.325263 7.58932 -0.0940952 6.25788 0.0177727 4.91699ZM4.87304 1.37097C3.87171 1.37112 2.90703 1.74318 2.1705 2.41331C1.43398 3.08343 0.979443 4.00262 0.897129 4.98841C0.804021 6.10434 1.15299 7.21241 1.87053 8.07921L4.68788 11.483C4.72576 11.5288 4.77346 11.5657 4.82755 11.591C4.88163 11.6163 4.94074 11.6295 5.0006 11.6295C5.06045 11.6295 5.11956 11.6163 5.17365 11.591C5.22773 11.5657 5.27544 11.5288 5.31331 11.483L8.13066 8.07921C8.84778 7.21223 9.19632 6.10418 9.10289 4.98841C9.02057 4.00252 8.56595 3.08325 7.8293 2.41311C7.09264 1.74297 6.12782 1.37098 5.12639 1.37097H4.87246H4.87304Z" fill="#0E3158"/>
<path fill-rule="evenodd" clip-rule="evenodd" d="M16.208 5.58071C16.208 4.84922 16.5022 4.1477 17.0258 3.63046C17.5494 3.11321 18.2596 2.82263 19.0001 2.82263C19.7406 2.82263 20.4508 3.11321 20.9744 3.63046C21.498 4.1477 21.7922 4.84922 21.7922 5.58071C21.7922 6.3122 21.498 7.01373 20.9744 7.53097C20.4508 8.04821 19.7406 8.33879 19.0001 8.33879C18.2596 8.33879 17.5494 8.04821 17.0258 7.53097C16.5022 7.01373 16.208 6.3122 16.208 5.58071ZM19.0001 3.6936C18.4934 3.6936 18.0075 3.89242 17.6492 4.24633C17.291 4.60023 17.0897 5.08022 17.0897 5.58071C17.0897 6.08121 17.291 6.5612 17.6492 6.9151C18.0075 7.269 18.4934 7.46782 19.0001 7.46782C19.5067 7.46782 19.9927 7.269 20.3509 6.9151C20.7092 6.5612 20.9104 6.08121 20.9104 5.58071C20.9104 5.08022 20.7092 4.60023 20.3509 4.24633C19.9927 3.89242 19.5067 3.6936 19.0001 3.6936Z" fill="#0E3158"/>
<path fill-rule="evenodd" clip-rule="evenodd" d="M14.0178 4.91699C14.1182 3.71319 14.6733 2.59074 15.5728 1.77248C16.4722 0.954216 17.6503 0.499996 18.873 0.5H19.127C20.3497 0.499996 21.5278 0.954216 22.4273 1.77248C23.3267 2.59074 23.8818 3.71319 23.9822 4.91699C24.094 6.25788 23.6747 7.58929 22.8125 8.63082L19.9952 12.034C19.8746 12.1797 19.7228 12.297 19.5507 12.3776C19.3786 12.4582 19.1905 12.5 19 12.5C18.8095 12.5 18.6215 12.4582 18.4494 12.3776C18.2773 12.297 18.1254 12.1797 18.0049 12.034L15.1875 8.63082C14.3253 7.58932 13.9059 6.25788 14.0178 4.91699ZM18.873 1.37097C17.8717 1.37112 16.907 1.74318 16.1705 2.41331C15.434 3.08343 14.9794 4.00262 14.8971 4.98841C14.804 6.10434 15.153 7.21241 15.8705 8.07921L18.6879 11.483C18.7258 11.5288 18.7735 11.5657 18.8275 11.591C18.8816 11.6163 18.9407 11.6295 19.0006 11.6295C19.0605 11.6295 19.1196 11.6163 19.1736 11.591C19.2277 11.5657 19.2754 11.5288 19.3133 11.483L22.1307 8.07921C22.8478 7.21223 23.1963 6.10418 23.1029 4.98841C23.0206 4.00252 22.566 3.08325 21.8293 2.41311C21.0926 1.74297 20.1278 1.37098 19.1264 1.37097H18.8725H18.873Z" fill="#0E3158"/>
<path d="M7.5 19C7.5 20.1046 6.60457 21 5.5 21C4.39543 21 3.5 20.1046 3.5 19C3.5 17.8954 4.39543 17 5.5 17C6.60457 17 7.5 17.8954 7.5 19Z" stroke="#0E3158"/>
<circle cx="19.5" cy="19" r="2.5" fill="#0E3158"/>
<path d="M8 19H18" stroke="#0E3158" stroke-linecap="round"/>
</svg>
