<svg width="22" height="22" viewBox="0 0 22 22" fill="none" xmlns="http://www.w3.org/2000/svg">
<path d="M3.72811 15.137C2.18311 13.591 1.41011 12.819 1.12311 11.816C0.83511 10.813 1.08111 9.748 1.57311 7.619L1.85611 6.391C2.26911 4.599 2.47611 3.703 3.08911 3.089C3.70311 2.476 4.59911 2.269 6.39111 1.856L7.61911 1.572C9.74911 1.081 10.8131 0.835001 11.8161 1.122C12.8191 1.41 13.5911 2.183 15.1361 3.728L16.9661 5.558C19.6571 8.248 21.0001 9.592 21.0001 11.262C21.0001 12.933 19.6561 14.277 16.9671 16.966C14.2771 19.656 12.9331 21 11.2621 21C9.59211 21 8.24711 19.656 5.55811 16.967L3.72811 15.137Z" stroke="#0E3158" stroke-width="1.5"/>
<path d="M14.3901 14.39C14.9751 13.803 15.0541 12.933 14.5661 12.444C14.0781 11.956 13.2071 12.035 12.6211 12.621C12.0361 13.207 11.1651 13.286 10.6771 12.798C10.1891 12.31 10.2681 11.439 10.8541 10.854M10.8541 10.854L10.5001 10.5M10.8541 10.854C11.1851 10.522 11.6071 10.354 12.0001 10.357M14.7431 14.743L14.3891 14.389C13.9891 14.79 13.4541 14.954 13.0001 14.86" stroke="#0E3158" stroke-width="1.5" stroke-linecap="round"/>
<path d="M9.02121 9.29324C9.80225 8.51219 9.80225 7.24586 9.02121 6.46481C8.24016 5.68377 6.97383 5.68377 6.19278 6.46481C5.41173 7.24586 5.41173 8.51219 6.19278 9.29324C6.97383 10.0743 8.24016 10.0743 9.02121 9.29324Z" stroke="#0E3158" stroke-width="1.5"/>
</svg>
