<svg width="20" height="17" viewBox="0 0 20 17" fill="none" xmlns="http://www.w3.org/2000/svg">
<path d="M1.00115 2.875V14.5C1.00115 14.8978 1.15918 15.2794 1.44049 15.5607C1.72179 15.842 2.10332 16 2.50115 16H17.5011C17.7001 16 17.8908 15.921 18.0315 15.7803C18.1721 15.6397 18.2511 15.4489 18.2511 15.25V5.5C18.2511 5.30109 18.1721 5.11032 18.0315 4.96967C17.8908 4.82902 17.7001 4.75 17.5011 4.75H2.92302C2.43088 4.75545 1.95577 4.57002 1.59742 4.23265C1.23908 3.89528 1.02536 3.4322 1.00115 2.94063C0.992334 2.68893 1.03432 2.43804 1.12459 2.20292C1.21486 1.96781 1.35158 1.75329 1.52657 1.57217C1.70157 1.39105 1.91126 1.24704 2.14313 1.14874C2.375 1.05043 2.6243 0.999846 2.87615 1H15.2511" stroke="#54A9C8" stroke-width="2" stroke-linecap="round" stroke-linejoin="round"/>
</svg>
